# xmcd
#
# Track frame offsets:
#	150
#	14306
#	28235
#	42279
#	56782
#	68353
#	79626
#	94449
#	107015
#	120908
#	135270
#	146448
#	160785
#	174933
#	186941
#	199266
#	213317
#	226718
#
# Disc length: 3226 seconds
#
# Revision: 1
# Processed by: cddbd v1.5.2PL0 Copyright (c) Steve Scherf et al.
# Submitted via: audiograbber 1.83.01
#
DISCID=e60c9812
DTITLE=Ella Fitzgerald - Masters of Music - CD 3
DYEAR=2005
DGENRE=Oldies
TTITLE0=That was my heart
TTITLE1=So long
TTITLE2=I must have that man
TTITLE3=The starlit hour
TTITLE4=Baby, won't you please come home?
TTITLE5=Oh, yes, take another guess
TTITLE6=Undecided
TTITLE7=Cry you out of my heart
TTITLE8=Rhythm and romance
TTITLE9=Five 'o clock whistle
TTITLE10=When I get low I get high
TTITLE11=Holiday in Harlem
TTITLE12=I'm up a tree
TTITLE13=It's a pity to say goodnight
TTITLE14=Melinda the Mousie
TTITLE15=A kiss goodnight
TTITLE16=Little white lies
TTITLE17=You don't know what love is
EXTD=
EXTT0=
EXTT1=
EXTT2=
EXTT3=
EXTT4=
EXTT5=
EXTT6=
EXTT7=
EXTT8=
EXTT9=
EXTT10=
EXTT11=
EXTT12=
EXTT13=
EXTT14=
EXTT15=
EXTT16=
EXTT17=
PLAYORDER=
